<mxfile host="app.diagrams.net" modified="2024-06-20T17:32:35.800Z" agent="Mozilla/5.0 (Windows NT 10.0; Win64; x64) AppleWebKit/537.36 (KHTML, like Gecko) Chrome/126.0.0.0 Safari/537.36" version="24.5.1" etag="JAfpU6i2i8MIJjvPKMeO" type="github">
  <diagram name="Page-1" id="wwc0BKWF2x0waD-_i0au">
    <mxGraphModel>
      <root>
        <mxCell id="0" />
        <mxCell id="1" parent="0" />
      </root>
    </mxGraphModel>
  </diagram>
</mxfile>
